<svg xmlns="http://www.w3.org/2000/svg" viewBox="0 0 512 512" role="img" aria-label="FALSE ACCESS">
  <defs>
    <linearGradient id="bg" x1="72" y1="44" x2="438" y2="474" gradientUnits="userSpaceOnUse">
      <stop stop-color="#181c22"/>
      <stop offset="1" stop-color="#080a0d"/>
    </linearGradient>
    <linearGradient id="panel" x1="104" y1="112" x2="410" y2="406" gradientUnits="userSpaceOnUse">
      <stop stop-color="#20262d"/>
      <stop offset="1" stop-color="#0d1014"/>
    </linearGradient>

  </defs>
  <rect x="20" y="20" width="472" height="472" rx="112" fill="url(#bg)"/>
  <rect x="21.5" y="21.5" width="469" height="469" rx="110.5" fill="none" stroke="#fff" stroke-opacity=".11" stroke-width="3"/>
  <g>
    <rect x="82" y="92" width="348" height="328" rx="34" fill="url(#panel)" stroke="#fff" stroke-opacity=".14" stroke-width="3"/>
    <path d="M82 147h348" stroke="#fff" stroke-opacity=".12" stroke-width="3"/>
    <circle cx="119" cy="120" r="8" fill="#ff5a38"/>
    <circle cx="145" cy="120" r="8" fill="#efc46b"/>
    <circle cx="171" cy="120" r="8" fill="#9dcf74"/>
    <path d="M132 216l-34 30 34 30" fill="none" stroke="#ff5a38" stroke-width="18" stroke-linecap="round" stroke-linejoin="round"/>
    <path d="M205 191l-34 111" stroke="#70a5d8" stroke-width="16" stroke-linecap="round"/>
    <path d="M244 216l34 30-34 30" fill="none" stroke="#ff5a38" stroke-width="18" stroke-linecap="round" stroke-linejoin="round"/>
    <rect x="310" y="203" width="76" height="13" rx="6.5" fill="#dfe3df" fill-opacity=".9"/>
    <rect x="310" y="234" width="54" height="13" rx="6.5" fill="#9dcf74"/>
    <rect x="310" y="265" width="69" height="13" rx="6.5" fill="#dfe3df" fill-opacity=".58"/>
    <rect x="112" y="340" width="274" height="18" rx="9" fill="#fff" fill-opacity=".08"/>
    <rect x="112" y="340" width="172" height="18" rx="9" fill="#ff5a38"/>
  </g>
</svg>
