<svg xmlns="http://www.w3.org/2000/svg" viewBox="0 0 512 512" role="img" aria-label="FALSE ACCESS">
  <defs>
    <linearGradient id="shell" x1="50" y1="24" x2="470" y2="490" gradientUnits="userSpaceOnUse">
      <stop stop-color="#1c2026"/>
      <stop offset="1" stop-color="#08090b"/>
    </linearGradient>
    <linearGradient id="cut" x1="90" y1="82" x2="370" y2="420" gradientUnits="userSpaceOnUse">
      <stop stop-color="#fffdf3"/>
      <stop offset="1" stop-color="#bfc4c8"/>
    </linearGradient>
    <filter id="glow" x="-60%" y="-60%" width="220%" height="220%">
      <feGaussianBlur stdDeviation="18"/>
    </filter>
  </defs>
  <rect width="512" height="512" rx="112" fill="url(#shell)"/>
  <rect x="3" y="3" width="506" height="506" rx="109" fill="none" stroke="#fff" stroke-opacity=".12" stroke-width="6"/>
  <path d="M86 112h265l-45 68H160v64h118l-42 68h-76v89H86V112Z" fill="url(#cut)"/>
  <path d="M358 108h68v296h-68V108Z" fill="#ff5a38" opacity=".2" filter="url(#glow)"/>
  <path d="M358 108h68v296h-68V108Z" fill="#ff5a38"/>
  <path d="M327 214h99v55h-99l31-55Z" fill="#08090b"/>
  <path d="M288 355h138v49H257l31-49Z" fill="#08090b"/>
  <circle cx="397" cy="137" r="10" fill="#08090b"/>
  <path d="M64 454h384" stroke="#ff5a38" stroke-opacity=".45" stroke-width="3"/>
</svg>
